<svg width="55" height="51" viewBox="0 0 55 51" fill="none" xmlns="http://www.w3.org/2000/svg">
<path d="M54.3206 0.872119C54.4235 0.691981 54.3069 0.598484 54.166 0.5H54.0414L51.5089 1.05288C42.5512 3.24695 34.6046 8.7664 29.4067 16.3496C29.0328 16.895 28.2891 18.3212 27.9027 18.679C27.5555 19.0006 27.083 19.0187 26.6748 18.7974C26.2359 18.5599 25.6525 17.3688 25.3321 16.8988C19.6506 8.56631 12.083 3.57232 2.3686 0.998652C2.3206 1.01174 2.29754 1.02857 2.29317 1.04727C2.25266 1.01236 2.21464 0.976212 2.1816 0.93632C2.03575 0.897675 1.88989 0.84968 1.74528 0.811657C1.25099 0.693851 0.752341 0.589757 0.249326 0.5H0V0.811657C3.77978 7.26733 9.80349 12.2962 16.8943 14.7402C18.1073 15.1585 19.448 15.5524 20.709 15.7874C20.7558 15.7961 20.8723 15.8959 20.8175 15.7413C20.7103 15.439 19.9791 14.4616 19.7472 14.1313C16.3826 9.33673 11.5619 5.16115 6.23252 2.68222C6.1384 2.61366 6.03431 2.54821 5.92398 2.48775C6.06797 2.53949 6.2132 2.58499 6.35719 2.61989C12.0032 5.17798 16.7416 8.9696 20.3699 14.0072C26.0278 21.861 28.1258 31.9599 26.0539 41.4524C26.0539 41.4437 26.0196 41.3901 25.9966 41.3246C25.9978 41.2648 25.9966 41.2043 25.9916 41.1407C26.762 36.4833 26.666 31.7754 25.5871 27.1779C25.425 26.4872 25.1987 25.8159 25.056 25.1216C24.8939 25.0929 24.9594 25.1446 24.9264 25.2101C24.7126 25.6277 24.4726 26.5645 24.3386 27.0526C22.6182 33.3375 22.9049 39.8168 25.0566 45.9403C25.0784 46.002 25.0959 46.0637 25.119 46.1273C25.2436 46.4726 25.3558 46.783 25.4929 47.1246C25.8171 47.9336 26.1412 48.7608 26.5414 49.5355C26.6081 49.6652 26.982 50.3945 27.0194 50.4288C27.1616 50.559 27.285 50.4948 27.3922 50.3633C27.5405 50.1819 27.8696 49.4813 27.9981 49.2239C28.3359 48.5463 29.0539 47.0703 29.1711 46.3766C29.1761 46.3323 29.183 46.2881 29.1892 46.2432C29.1861 46.2775 29.1805 46.3205 29.1711 46.3766C29.3955 45.9297 29.5644 45.3799 29.714 44.8937C31.3696 39.5326 31.6251 33.8567 30.3754 28.3734C30.1254 27.2757 29.7508 26.2124 29.4822 25.1209C29.3407 25.096 29.3831 25.1284 29.3432 25.2007C29.183 25.4912 29.0184 26.2878 28.9262 26.653C27.7986 31.1072 27.568 36.0414 28.2985 40.5798C28.2997 40.6377 28.3022 40.6957 28.3047 40.7537C28.2823 40.8503 28.2362 40.9413 28.2362 40.9537C26.3382 31.7193 28.4144 21.9931 33.7949 14.3183C37.0779 9.63592 41.4648 5.89043 46.5616 3.30554C46.7137 3.25505 46.8664 3.19895 47.0185 3.13911C46.9531 3.17527 46.8889 3.21204 46.8278 3.24944C46.791 3.27188 46.7679 3.31676 46.7486 3.36787C41.7895 5.98766 36.755 10.5497 33.8198 15.3405C33.7799 15.4059 33.5611 15.7388 33.5967 15.7712C42.2626 14.0845 49.8583 8.42171 54.3206 0.872119ZM51.2988 1.31031C51.6815 1.23676 51.7439 1.25733 51.4858 1.37264C51.3967 1.36641 51.2938 1.37638 51.1935 1.40007C51.2359 1.37513 51.2726 1.34521 51.2988 1.31031ZM50.8002 1.4973C50.8538 1.49855 50.9155 1.49232 50.9778 1.47923C50.9335 1.50291 50.8943 1.52909 50.8625 1.55963C50.7796 1.56961 50.6892 1.58706 50.5988 1.61262C50.6686 1.57646 50.736 1.5372 50.8002 1.4973ZM49.8652 1.87129C49.9518 1.90121 49.9898 1.87503 49.9275 1.80896C50.0416 1.80647 50.1569 1.78465 50.2697 1.74975C50.2105 1.78527 50.1581 1.82579 50.1145 1.87129C49.9873 1.84449 49.925 1.86506 49.9275 1.93362C49.8097 1.95856 49.69 1.98972 49.5722 2.02712C49.6732 1.97788 49.7717 1.92552 49.8652 1.87129ZM3.05424 1.43497L2.97383 1.34272C2.81551 1.3128 2.67589 1.26917 2.55434 1.21245C2.78559 1.29597 3.10535 1.3689 3.24124 1.37264C3.28425 1.41253 3.33473 1.44868 3.38959 1.47923C3.27677 1.44993 3.16083 1.43373 3.05424 1.43497ZM3.80222 1.6843C3.75983 1.6469 3.71122 1.61449 3.65823 1.58519C3.74924 1.60825 3.84149 1.62134 3.92688 1.62197C4.01477 1.67744 4.10702 1.72918 4.20176 1.77655C4.069 1.73541 3.93499 1.70424 3.80222 1.6843ZM4.92419 2.12062C4.83942 2.06203 4.74841 2.00842 4.65429 1.9598C4.78519 2.00157 4.91733 2.03522 5.04885 2.05829C5.1492 2.12249 5.25392 2.18295 5.36238 2.24029C5.21403 2.18918 5.06506 2.14867 4.92419 2.12062ZM48.8679 2.36994C48.636 2.44786 48.3842 2.53637 48.1299 2.63423C48.3387 2.52827 48.5438 2.41856 48.7432 2.30761C48.8691 2.28642 48.9969 2.25214 49.1234 2.21038C49.0337 2.25775 48.9477 2.31011 48.8679 2.36994Z" fill="#886BD0"/>
</svg>
